<svg xmlns="http://www.w3.org/2000/svg" xmlns:xlink="http://www.w3.org/1999/xlink" viewBox="0 0 98.37 25.99"><defs><style>.cls-1{fill:none;}.cls-2{fill:#2e343d;}.cls-3{clip-path:url(#clip-path);}.cls-4{fill:#76a955;}.cls-5{fill:#fff;}</style><clipPath id="clip-path"><path class="cls-1" d="M65.27,8.75a6.08,6.08,0,1,1,12.15,0,6.08,6.08,0,1,1-12.15,0"/></clipPath></defs><title>isoPythonCharmers_Logo_1</title><g id="Layer_2" data-name="Layer 2"><g id="Layer_1-2" data-name="Layer 1"><path class="cls-2" d="M2.68,2.56H4.2c3.33,0,4.71,1.58,4.71,4.16S7.56,10.87,4.2,10.87H2.68ZM0,.23v17H2.68V13.2H4.3c4.69,0,7.32-2.56,7.32-6.49S9,.23,4.3.23Z"/><path class="cls-2" d="M25.61.23l-3.73,7a22.83,22.83,0,0,0-1,2.46,18.55,18.55,0,0,0-1-2.46L16,.23H13L19.5,11.88v5.39h2.66V11.73L28.34.23Z"/><polygon class="cls-2" points="30.11 0.23 30.11 2.56 35.16 2.56 35.16 17.26 37.8 17.26 37.8 2.56 42.86 2.56 42.86 0.23 30.11 0.23"/><polygon class="cls-2" points="56.57 0.23 56.57 9.4 48.38 9.4 48.38 0.23 45.72 0.23 45.72 17.26 48.38 17.26 48.38 11.75 56.57 11.75 56.57 17.26 59.23 17.26 59.23 0.23 56.57 0.23"/><path class="cls-2" d="M65.27,8.75a6.08,6.08,0,1,1,12.15,0,6.08,6.08,0,1,1-12.15,0m-2.71,0a8.78,8.78,0,0,0,17.56,0,8.78,8.78,0,0,0-17.56,0"/><path class="cls-2" d="M83.48.05V17.26h2.46V7.87a24.25,24.25,0,0,0-.18-2.46s.92,1.18,1.6,1.9l9.39,10.12h.33V.23H94.62V9.6c0,1,.18,2.46.18,2.46s-.93-1.2-1.58-1.9L83.83.05Z"/><g class="cls-3"><path class="cls-4" d="M86.48,18.58c-3.08-.3-9.28-.08-9.76,1.44-.13.71,7.48,1.1,9.36.43-1,.83-2.08.69-3.2.81-2.52-.07-5.9-.11-6.83-.75A3,3,0,0,1,75,18.44a8.4,8.4,0,0,1,0-2c.29-3.21,2.13-8.42-.89-10.18a7,7,0,0,1-1.72-1.06,1.32,1.32,0,0,0-1.5-.44c-.54.43-1.19.55-1.74,1a.54.54,0,0,0-.08.55c.32.66,1.19.38,1.82.5.33.06.76.42,1.1.49,1.49.47,2.56,3,2.08,7.34a22.07,22.07,0,0,0-.57,4.19,4.42,4.42,0,0,0,1.89,3.52c1.8,1.16,5,1,7.52,1.11,4.15,0,6.09-.49,5.89-1.76C89.64,19.91,88,18.7,86.48,18.58Z"/><path class="cls-5" d="M96.69,20.7c-.11.89-4.69.89-7.09.65a1.32,1.32,0,0,0,.15-.63c2.09-.23,4.26.47,6.94,0"/><path class="cls-2" d="M69.94,5.62l.91-.29s.14.63-.91.29"/><path class="cls-2" d="M74.51,5.72a11,11,0,0,1-2.27-1.38,1.62,1.62,0,0,0-1.8,0c-.73.53-2.17.6-2.13,1.76a4.54,4.54,0,0,0-1.24.48c-.5.38-.79-.16-1.31.15a1.48,1.48,0,0,1,1,.32c-.08.26,0,.38-.4.66.46,0,.56-.48.85-.79a1.76,1.76,0,0,1,1.38-.33c.48.72,1.4.6,2.12.65a11.89,11.89,0,0,1,1.16.53L72,7.23c-.34-.08-.77-.43-1.1-.49-.63-.12-1.5.16-1.82-.5a.54.54,0,0,1,.08-.55c.55-.4,1.21-.52,1.74-1a1.32,1.32,0,0,1,1.5.44,7,7,0,0,0,1.72,1.06Zm23.78,13.4c-.09,0-.13,0-.19.06-2.49,2.14-5.61.78-8.42.91a2.86,2.86,0,0,0-2.53-2c-2.71-.43-9.72-.54-11.09,1.61-.41-.37-.7-2-.5-3.43l-.57.13a8.4,8.4,0,0,0,0,2,3,3,0,0,0,1.09,2.06c.93.64,4.3.68,6.83.75,1.12-.12,2.17,0,3.2-.81-1.87.68-9.48.28-9.36-.43.48-1.51,6.68-1.73,9.76-1.44,1.54.12,3.15,1.33,2.3,3,.2,1.27-1.73,1.74-5.89,1.76-2.57-.1-5.72.05-7.52-1.11a4.42,4.42,0,0,1-1.89-3.52A22.07,22.07,0,0,1,74,14.57a4.3,4.3,0,0,0-.57-.1h0c-.18,1.6-1.11,3.95-.25,6a5.13,5.13,0,0,0,4.62,3.39,55.06,55.06,0,0,0,8.79,0c1.09-.16,2.78-.39,2.88-1.82a53.86,53.86,0,0,0,6.3-.2,3.45,3.45,0,0,0,2.51-2.14C98.36,19.5,98.42,19.27,98.29,19.12Z"/><path class="cls-2" d="M74,14.57c.48-4.35-.59-6.87-2.08-7.34l-.39.34.25.25c1,.46,2,2.17,1.65,6.65l.12.56Z"/><path class="cls-2" d="M75.57,16.28c.42-2.42,2.33-9.1-1.05-10.55l-.56,0,.15.46c3,1.77,1.18,7,.89,10.18l.21.52Z"/></g><path class="cls-4" d="M0,22.47A3.45,3.45,0,0,1,3.52,19a3.08,3.08,0,0,1,2.75,1.36l-.82.59a2.18,2.18,0,0,0-1.93-1,2.42,2.42,0,0,0-2.43,2.55A2.42,2.42,0,0,0,3.52,25a2.31,2.31,0,0,0,2-1.08l.82.57A3.25,3.25,0,0,1,3.52,26,3.46,3.46,0,0,1,0,22.47"/><polygon class="cls-4" points="14.06 19.03 15.13 19.03 15.13 22.73 18.44 22.73 18.44 19.03 19.51 19.03 19.51 25.9 18.44 25.9 18.44 23.68 15.13 23.68 15.13 25.9 14.06 25.9 14.06 19.03"/><path class="cls-4" d="M30,19h.12l3,6.94H32.07l-.39-1H28.53l-.39,1h-1ZM31.29,24l-.86-2.14a10.37,10.37,0,0,1-.34-1,9,9,0,0,1-.33,1L28.9,24Z"/><path class="cls-4" d="M45.53,25.9H44.3l-1.23-1.81c-.19,0-.39,0-.58,0h-.64V25.9H40.78V19H42.5c1.9,0,3,1,3,2.57a2.19,2.19,0,0,1-1.37,2.18Zm-3.08-2.69c1.36,0,1.91-.6,1.91-1.62S43.8,20,42.46,20h-.6v3.24Z"/><path class="cls-4" d="M53.87,19H54l2.38,3.67a7.57,7.57,0,0,1,.41.71s.22-.41.42-.71L59.55,19h.12l.65,6.95H59.26l-.33-3.38c0-.41-.06-1.11-.06-1.11a9.53,9.53,0,0,1-.52,1L56.8,24.84h-.1l-1.53-2.46c-.24-.36-.56-1-.56-1s0,.69,0,1.1l-.34,3.38h-1Z"/><polygon class="cls-4" points="68.31 19.03 72.68 19.03 72.68 19.97 69.38 19.97 69.38 22.64 72.3 22.64 72.3 23.56 69.38 23.56 69.38 24.96 72.82 24.96 72.82 25.9 68.31 25.9 68.31 19.03"/><path class="cls-4" d="M85.47,25.9H84.24L83,24.09c-.19,0-.39,0-.58,0h-.64V25.9H80.72V19h1.72c1.9,0,3,1,3,2.57A2.19,2.19,0,0,1,84,23.78ZM82.4,23.21c1.36,0,1.91-.6,1.91-1.62S83.74,20,82.4,20h-.6v3.24Z"/><path class="cls-4" d="M92.69,24.57l.88-.49a1.69,1.69,0,0,0,1.57,1c.7,0,1.19-.37,1.19-.94s-.4-.86-1.15-1.19l-.45-.2c-1-.44-1.61-.95-1.61-2A1.76,1.76,0,0,1,95.05,19,2,2,0,0,1,97,20l-.84.51a1.13,1.13,0,0,0-1.1-.67.8.8,0,0,0-.88.8c0,.51.29.75,1,1l.44.2c1.17.52,1.8,1.06,1.8,2.16S96.46,26,95.17,26a2.59,2.59,0,0,1-2.48-1.42"/></g></g></svg>